<svg width="824" height="636" viewBox="0 0 824 636" fill="none" xmlns="http://www.w3.org/2000/svg">
<path fill-rule="evenodd" clip-rule="evenodd" d="M386.1 284.5C368 284.5 353.3 269.8 353.3 251.7C353.3 233.6 368 218.9 386.1 218.9C404.2 218.9 418.9 233.6 418.9 251.7C418.9 269.8 404.2 284.5 386.1 284.5ZM386.1 226.9C372.5 226.9 361.3 238 361.3 251.7C361.3 265.3 372.5 276.5 386.1 276.5C399.8 276.5 410.9 265.3 410.9 251.7C410.9 238 399.8 226.9 386.1 226.9Z" fill="#5131A5"/>
<path d="M633.3 375C597.5 286.4 496.7 243.6 408.1 279.4C319.5 315.2 276.8 416.1 312.6 504.6C348.4 593.2 449.2 636 537.8 600.2C626.3 564.4 669.1 463.5 633.3 375Z" fill="#0265DC"/>
<path d="M253.5 551.9L137.3 521.2C129.6 519.2 126.9 512.6 128.7 505.7C129.4 503 130.6 500.4 132.6 498.5L307.2 302.5C312.1 297 318.3 295.7 323.8 297.1C329.7 298.7 337.1 306 335.2 313.3C334.7 315.2 333.7 316.9 332.2 318.9L171.5 499.4L261.1 523.1L284.4 434.9C286.5 427.1 294.8 425.4 302.5 427.5C309.8 429.4 316.6 435.1 314.6 442.9L291.3 531.1L316.4 537.8C324.2 539.8 325.9 548.1 324.1 555C322.1 562.3 315.6 568.4 308.8 566.6L283.6 559.9L266 626.7C263.9 634.4 255.1 636.5 247.8 634.6C240 632.5 233.8 626.5 235.8 618.7L253.5 551.9Z" fill="#0265DC"/>
<path d="M247.2 544L131.1 513.3C123.3 511.2 120.7 504.7 122.5 497.8C123.2 495.1 124.4 492.4 126.4 490.5L301 294.6C305.9 289 312.1 287.7 317.6 289.2C323.5 290.8 330.9 298.1 328.9 305.4C328.4 307.2 327.5 308.9 326 311L165.3 491.5L254.9 515.2L278.2 427C280.2 419.2 288.5 417.5 296.3 419.5C303.6 421.5 310.4 427.2 308.4 435L285 523.2L310.2 529.8C317.9 531.9 319.7 540.2 317.9 547C315.9 554.3 309.4 560.5 302.6 558.6L277.4 552L259.8 618.7C257.7 626.5 248.8 628.6 241.5 626.6C233.8 624.6 227.5 618.5 229.6 610.8L247.2 544Z" fill="#0265DC"/>
<path d="M756.5 545.4L637.1 558.6C629.2 559.5 624.3 554.3 623.5 547.3C623.2 544.4 623.4 541.6 624.5 539.1L716.8 293.4C719.4 286.4 724.7 283 730.4 282.4C736.5 281.7 746 285.9 746.8 293.4C747 295.3 746.7 297.2 746.1 299.7L661.1 526L753.3 515.8L743.3 425.1C742.4 417.1 749.5 412.5 757.5 411.6C765 410.8 773.4 413.7 774.3 421.7L784.3 512.4L810.1 509.5C818.1 508.7 822.7 515.8 823.5 522.8C824.3 530.3 820.5 538.4 813.4 539.2L787.6 542L795.1 610.6C796 618.6 788.5 623.7 781 624.6C773 625.5 765 622 764.1 614.1L756.5 545.4Z" fill="#0265DC"/>
<path d="M747.9 540.3L628.5 553.5C620.5 554.3 615.6 549.2 614.9 542.1C614.5 539.3 614.7 536.4 615.9 533.9L708.2 288.2C710.7 281.3 716 277.8 721.7 277.2C727.8 276.5 737.3 280.7 738.1 288.3C738.3 290.1 738.1 292.1 737.4 294.5L652.5 520.8L744.6 510.7L734.6 420C733.7 412 740.8 407.4 748.8 406.5C756.3 405.7 764.7 408.5 765.6 416.5L775.6 507.2L801.5 504.4C809.5 503.5 814 510.6 814.8 517.7C815.7 525.2 811.8 533.2 804.7 534L778.9 536.9L786.5 605.5C787.3 613.5 779.8 618.6 772.3 619.4C764.3 620.3 756.3 616.9 755.4 608.9L747.9 540.3Z" fill="#0265DC"/>
<path d="M620.8 370.8C585 282.2 484.2 239.5 395.6 275.3C307.1 311.1 264.3 411.9 300.1 500.5C335.9 589 436.7 631.8 525.3 596C613.9 560.2 656.6 459.4 620.8 370.8Z" fill="#5131A5"/>
<path d="M618.2 371.9C583 284.8 483.8 242.7 396.7 277.9C309.6 313.1 267.5 412.3 302.7 499.4C338 586.5 437.1 628.6 524.2 593.4C611.3 558.1 653.4 459 618.2 371.9Z" fill="#282F42"/>
<path d="M587 384.5C558.8 314.6 479.2 280.8 409.3 309.1C339.4 337.3 305.7 416.9 333.9 486.8C362.2 556.7 441.7 590.4 511.6 562.2C581.5 533.9 615.3 454.4 587 384.5Z" fill="#0265DC"/>
<path d="M396.7 277.9C402.9 275.4 409.1 273.4 415.3 271.6L410.7 260.3L374.4 275L379 286.3C384.7 283.2 390.6 280.4 396.7 277.9Z" fill="#0265DC"/>
<path fill-rule="evenodd" clip-rule="evenodd" d="M460.7 599.4C395.8 599.4 334.3 560.7 308.6 497C292.2 456.5 292.6 411.9 309.7 371.7C326.8 331.4 358.5 300.2 399.1 283.8C439.6 267.4 484.2 267.7 524.4 284.8C564.7 301.9 595.9 333.7 612.3 374.2C628.7 414.8 628.4 459.3 611.3 499.6C594.2 539.9 562.4 571.1 521.9 587.5C501.8 595.6 481.1 599.4 460.7 599.4ZM460.5 273.7C440 273.7 419.4 277.7 399.8 285.6C359.8 301.8 328.4 332.6 311.5 372.4C294.6 412.2 294.3 456.2 310.4 496.3C343.9 579 438.4 619.1 521.1 585.6C603.8 552.2 643.9 457.7 610.5 375C594.3 334.9 563.5 303.6 523.7 286.7C503.3 278 481.9 273.7 460.5 273.7Z" fill="#68BCA2"/>
<path d="M579.6 387.5C553 321.6 478.1 289.9 412.3 316.5C346.5 343.1 314.7 418 341.3 483.8C367.9 549.6 442.8 581.4 508.6 554.8C574.5 528.2 606.2 453.3 579.6 387.5Z" fill="#FFEDD0"/>
<path fill-rule="evenodd" clip-rule="evenodd" d="M460.5 565.2C443.3 565.2 426.1 561.8 409.9 554.9C378 541.4 353.3 516.3 340.4 484.2C327.4 452.1 327.7 416.9 341.2 385C354.7 353.2 379.8 328.5 411.9 315.5C444 302.6 479.2 302.9 511.1 316.4C542.9 329.9 567.6 355 580.6 387.1C593.5 419.2 593.2 454.4 579.7 486.2C566.2 518.1 541.1 542.8 509 555.7C493.3 562.1 476.9 565.2 460.5 565.2ZM460.5 308C444.3 308 428.1 311.1 412.7 317.4C381.1 330.2 356.4 354.5 343.1 385.8C329.8 417.2 329.5 451.8 342.2 483.4C355 515 379.3 539.7 410.7 553C442 566.3 476.7 566.6 508.3 553.9C539.8 541.1 564.6 516.8 577.9 485.4C591.2 454.1 591.5 419.4 578.7 387.8C565.9 356.3 541.6 331.5 510.3 318.2C494.3 311.4 477.4 308 460.5 308Z" fill="#282F42"/>
<path d="M506.8 555.5L410.4 317.2L414.2 315.7L510.5 554L506.8 555.5Z" fill="#0265DC"/>
<path d="M342.1 485.7L340.6 481.9L578.9 385.6L580.4 389.3L342.1 485.7Z" fill="#0265DC"/>
<path d="M476 429.4C472.5 420.8 462.8 416.6 454.2 420.1C445.6 423.6 441.5 433.3 444.9 441.9C448.4 450.5 458.2 454.6 466.7 451.2C475.3 447.7 479.5 437.9 476 429.4Z" fill="#5131A5"/>
<path d="M460.5 556.4H459.1L459.2 548.4H460.5H461.1L461.2 556.4H460.5ZM467.3 556.2L466.8 548.2C467.467 548.2 468.1 548.167 468.7 548.1L469.4 556.1C468.667 556.167 467.967 556.2 467.3 556.2ZM452.8 556.2C452.133 556.133 451.467 556.067 450.8 556L451.4 548C452.067 548.067 452.7 548.133 453.3 548.2L452.8 556.2ZM475.5 555.5L474.5 547.5C475.167 547.433 475.8 547.367 476.4 547.3L477.6 555.2C476.867 555.267 476.167 555.367 475.5 555.5ZM444.6 555.4C443.933 555.267 443.233 555.167 442.5 555.1L443.7 547.2C444.367 547.267 445 547.333 445.6 547.4L444.6 555.4ZM483.7 554.2L482.2 546.4C482.8 546.267 483.433 546.133 484.1 546L485.7 553.8C485.033 553.933 484.367 554.067 483.7 554.2ZM436.5 554.1C435.833 553.967 435.133 553.8 434.4 553.6L436.2 545.8C436.8 545.933 437.433 546.067 438.1 546.2L436.5 554.1ZM491.8 552.4L489.7 544.7C490.3 544.5 490.9 544.333 491.5 544.2L493.8 551.8C493.133 552 492.467 552.2 491.8 552.4ZM428.4 552.2C427.733 552 427.067 551.8 426.4 551.6L428.7 544C429.3 544.133 429.933 544.3 430.6 544.5L428.4 552.2ZM499.6 550L497 542.4C497.6 542.2 498.2 542 498.8 541.8L501.6 549.3C500.933 549.5 500.267 549.733 499.6 550ZM420.5 549.7C419.833 549.5 419.167 549.267 418.5 549L421.3 541.5C421.9 541.767 422.5 542 423.1 542.2L420.5 549.7ZM507.4 547L504.3 539.6C504.9 539.333 505.5 539.067 506.1 538.8L509.3 546.1C508.633 546.433 508 546.733 507.4 547ZM412.8 546.7C412.2 546.433 411.567 546.167 410.9 545.9L414.2 538.6C414.8 538.867 415.4 539.1 416 539.3L412.8 546.7ZM514.9 543.6L511.3 536.4C511.833 536.133 512.4 535.833 513 535.5L516.7 542.6C516.1 542.933 515.5 543.267 514.9 543.6ZM405.3 543.2C404.7 542.933 404.1 542.633 403.5 542.3L407.2 535.2C407.8 535.533 408.4 535.833 409 536.1L405.3 543.2ZM522 539.5L518 532.7C518.533 532.367 519.067 532.033 519.6 531.7L523.8 538.5C523.2 538.833 522.6 539.167 522 539.5ZM398 539.2C397.4 538.8 396.833 538.433 396.3 538.1L400.5 531.3C401.033 531.633 401.567 531.967 402.1 532.3L398 539.2ZM529 535.1L524.5 528.5C525.033 528.167 525.567 527.8 526.1 527.4L530.7 533.9C530.167 534.3 529.6 534.7 529 535.1ZM391.1 534.7C390.5 534.3 389.933 533.9 389.4 533.5L394.1 527C394.633 527.4 395.167 527.767 395.7 528.1L391.1 534.7ZM535.7 530.2L530.7 524C531.167 523.6 531.667 523.167 532.2 522.7L537.3 528.9C536.767 529.367 536.233 529.8 535.7 530.2ZM384.4 529.8C383.867 529.333 383.333 528.9 382.8 528.5L388 522.3C388.467 522.7 388.967 523.133 389.5 523.6L384.4 529.8ZM541.9 524.8L536.5 518.9C536.967 518.5 537.433 518.067 537.9 517.6L543.4 523.4C542.933 523.867 542.433 524.333 541.9 524.8ZM378.1 524.3C377.633 523.833 377.133 523.367 376.6 522.9L382.1 517.1C382.567 517.567 383.067 518.033 383.6 518.5L378.1 524.3ZM547.7 518.9L541.9 513.4C542.367 512.933 542.833 512.467 543.3 512L549.2 517.4C548.733 517.933 548.233 518.433 547.7 518.9ZM372.2 518.4C371.733 517.933 371.267 517.433 370.8 516.9L376.7 511.5C377.1 512.033 377.533 512.533 378 513L372.2 518.4ZM553.3 512.7L547.1 507.6C547.5 507.067 547.9 506.567 548.3 506.1L554.6 511C554.133 511.6 553.7 512.167 553.3 512.7ZM366.7 512.1C366.3 511.567 365.867 511.033 365.4 510.5L371.7 505.5C372.1 506.033 372.5 506.567 372.9 507.1L366.7 512.1ZM558.3 506L551.8 501.4C552.2 500.867 552.567 500.333 552.9 499.8L559.5 504.3C559.1 504.9 558.7 505.467 558.3 506ZM361.7 505.5C361.3 504.9 360.9 504.333 360.5 503.8L367.1 499.2C367.5 499.8 367.867 500.333 368.2 500.8L361.7 505.5ZM562.9 499.2L556.1 495C556.433 494.467 556.767 493.933 557.1 493.4L564 497.5C563.667 498.1 563.3 498.667 562.9 499.2ZM357.2 498.6C356.867 498.067 356.5 497.5 356.1 496.9L363 492.8C363.333 493.333 363.667 493.9 364 494.5L357.2 498.6ZM567.1 492L560 488.3C560.267 487.7 560.567 487.1 560.9 486.5L568 490.2C567.667 490.8 567.367 491.4 567.1 492ZM353.2 491.4C352.867 490.733 352.533 490.1 352.2 489.5L359.4 486C359.667 486.533 359.967 487.1 360.3 487.7L353.2 491.4ZM570.7 484.6L563.4 481.3C563.6 480.7 563.833 480.133 564.1 479.6L571.5 482.7C571.233 483.3 570.967 483.933 570.7 484.6ZM349.6 483.9C349.333 483.3 349.067 482.667 348.8 482L356.2 478.9C356.467 479.5 356.7 480.1 356.9 480.7L349.6 483.9ZM573.8 476.9L566.3 474.2C566.5 473.6 566.7 473 566.9 472.4L574.5 475C574.3 475.6 574.067 476.233 573.8 476.9ZM346.6 476.2C346.4 475.6 346.167 474.967 345.9 474.3L353.5 471.7C353.7 472.3 353.9 472.9 354.1 473.5L346.6 476.2ZM576.4 469L568.7 466.8C568.9 466.2 569.067 465.6 569.2 465L576.9 467.1C576.767 467.767 576.6 468.4 576.4 469ZM344.1 468.4C343.9 467.733 343.733 467.067 343.6 466.4L351.3 464.3C351.433 464.967 351.6 465.6 351.8 466.2L344.1 468.4ZM578.4 461.1L570.6 459.4C570.733 458.733 570.867 458.1 571 457.5L578.8 459C578.667 459.667 578.533 460.367 578.4 461.1ZM342.1 460.4C341.967 459.667 341.833 458.967 341.7 458.3L349.6 456.8C349.733 457.467 349.867 458.1 350 458.7L342.1 460.4ZM579.8 453L571.9 451.8C571.967 451.2 572.033 450.567 572.1 449.9L580.1 450.9C580.033 451.633 579.933 452.333 579.8 453ZM340.6 452.3C340.533 451.567 340.467 450.867 340.4 450.2L348.3 449.3C348.367 449.9 348.467 450.533 348.6 451.2L340.6 452.3ZM580.6 444.8L572.7 444.1C572.7 443.5 572.733 442.867 572.8 442.2L580.8 442.7C580.733 443.367 580.667 444.067 580.6 444.8ZM339.7 444C339.633 443.333 339.6 442.667 339.6 442L347.6 441.5C347.6 442.167 347.633 442.833 347.7 443.5L339.7 444ZM581 436.4H573V435.6V434.4H581V435.6V436.4ZM339.4 435.7C339.4 434.967 339.4 434.267 339.4 433.6L347.4 433.7C347.4 434.367 347.4 435.033 347.4 435.7H339.4ZM572.7 428.6C572.7 428 572.667 427.367 572.6 426.7L580.6 426C580.667 426.733 580.7 427.433 580.7 428.1L572.7 428.6ZM347.7 428L339.7 427.4C339.7 426.733 339.733 426.033 339.8 425.3L347.8 426C347.733 426.667 347.7 427.333 347.7 428ZM572 420.9C571.933 420.3 571.833 419.667 571.7 419L579.6 417.8C579.733 418.533 579.833 419.233 579.9 419.9L572 420.9ZM348.5 420.2L340.6 419.1C340.667 418.433 340.767 417.767 340.9 417.1L348.8 418.3C348.667 418.967 348.567 419.6 348.5 420.2ZM570.7 413.3C570.567 412.633 570.433 412 570.3 411.4L578.2 409.7C578.333 410.367 578.467 411.033 578.6 411.7L570.7 413.3ZM349.7 412.6L341.9 411C342.033 410.333 342.167 409.667 342.3 409L350.1 410.7C349.967 411.367 349.833 412 349.7 412.6ZM568.9 405.8C568.7 405.133 568.533 404.5 568.4 403.9L576 401.6C576.2 402.267 576.4 402.933 576.6 403.6L568.9 405.8ZM351.6 405.2L343.9 403C344.1 402.333 344.3 401.7 344.5 401.1L352.1 403.4C351.9 404 351.733 404.6 351.6 405.2ZM566.6 398.5C566.4 397.9 566.2 397.3 566 396.7L573.5 393.9C573.7 394.567 573.933 395.2 574.2 395.8L566.6 398.5ZM353.9 397.9L346.4 395.2C346.6 394.6 346.833 393.967 347.1 393.3L354.5 396.1C354.3 396.7 354.1 397.3 353.9 397.9ZM564.6 393.5C564.4 392.9 564.167 392.3 563.9 391.7L571.3 388.6C571.567 389.2 571.833 389.833 572.1 390.5L564.6 393.5ZM356.6 390.7L349.3 387.5C349.567 386.9 349.833 386.3 350.1 385.7L357.4 389C357.133 389.533 356.867 390.1 356.6 390.7ZM561.4 386.4C561.133 385.8 560.867 385.233 560.6 384.7L567.7 381.1C568.033 381.7 568.333 382.3 568.6 382.9L561.4 386.4ZM360 383.8L352.9 380.1C353.167 379.5 353.467 378.9 353.8 378.3L360.9 382.1C360.567 382.633 360.267 383.2 360 383.8ZM557.8 379.6C557.467 379 557.133 378.433 556.8 377.9L563.7 373.8C564.033 374.4 564.4 375 564.8 375.6L557.8 379.6ZM363.7 377.1L356.9 372.9C357.233 372.3 357.567 371.7 357.9 371.1L364.7 375.4C364.367 375.933 364.033 376.5 363.7 377.1ZM553.7 373C553.367 372.467 553 371.933 552.6 371.4L559.2 366.9C559.6 367.433 559.967 368 560.3 368.6L553.7 373ZM368 370.6L361.4 365.9C361.8 365.367 362.233 364.833 362.7 364.3L369.1 369C368.7 369.533 368.333 370.067 368 370.6ZM549.2 366.7C548.8 366.167 548.4 365.667 548 365.2L554.3 360.2C554.7 360.733 555.133 361.267 555.6 361.8L549.2 366.7ZM372.6 364.4L366.4 359.3C366.8 358.767 367.233 358.267 367.7 357.8L373.8 362.9C373.4 363.367 373 363.867 372.6 364.4ZM544.2 360.8C543.8 360.267 543.367 359.767 542.9 359.3L548.8 353.9C549.267 354.433 549.733 354.933 550.2 355.4L544.2 360.8ZM377.6 358.7L371.8 353.2C372.267 352.667 372.733 352.167 373.2 351.7L379 357.3C378.533 357.767 378.067 358.233 377.6 358.7ZM538.9 355.2C538.433 354.8 537.967 354.367 537.5 353.9L543 348.1C543.467 348.567 543.967 349.033 544.5 349.5L538.9 355.2ZM383.1 353.2L377.7 347.3C378.167 346.833 378.667 346.367 379.2 345.9L384.5 351.9C384.033 352.3 383.567 352.733 383.1 353.2ZM533.1 350C532.633 349.6 532.167 349.2 531.7 348.8L536.7 342.6C537.233 343 537.767 343.433 538.3 343.9L533.1 350ZM388.9 348.1L383.9 341.9C384.433 341.5 384.967 341.067 385.5 340.6L390.5 346.9C389.967 347.3 389.433 347.7 388.9 348.1ZM527.1 345.2C526.567 344.8 526.033 344.433 525.5 344.1L530.2 337.6C530.733 338 531.3 338.4 531.9 338.8L527.1 345.2ZM395.1 343.4L390.5 336.9C391.033 336.5 391.6 336.1 392.2 335.7L396.7 342.3C396.167 342.7 395.633 343.067 395.1 343.4ZM520.7 340.8C520.167 340.467 519.6 340.133 519 339.8L523.2 333C523.8 333.333 524.4 333.7 525 334.1L520.7 340.8ZM401.6 339.2L397.4 332.3C398 331.967 398.6 331.633 399.2 331.3L403.2 338.2C402.667 338.533 402.133 338.867 401.6 339.2ZM514 336.8C513.467 336.533 512.9 336.233 512.3 335.9L516.1 328.8C516.7 329.133 517.3 329.467 517.9 329.8L514 336.8ZM408.3 335.4L404.6 328.3C405.2 327.967 405.833 327.667 406.5 327.4L410 334.5C409.4 334.833 408.833 335.133 408.3 335.4ZM507.1 333.3C506.5 333.033 505.9 332.767 505.3 332.5L508.5 325.2C509.167 325.467 509.8 325.767 510.4 326.1L507.1 333.3ZM415.3 332.1L412.1 324.7C412.767 324.433 413.4 324.167 414 323.9L417.1 331.3C416.5 331.567 415.9 331.833 415.3 332.1ZM500 330.3C499.4 330.033 498.8 329.8 498.2 329.6L500.9 322.1C501.567 322.3 502.233 322.533 502.9 322.8L500 330.3ZM422.4 329.3L419.8 321.7C420.467 321.5 421.1 321.3 421.7 321.1L424.3 328.6C423.7 328.8 423.067 329.033 422.4 329.3ZM492.7 327.8C492.033 327.6 491.4 327.4 490.8 327.2L493 319.5C493.667 319.7 494.333 319.9 495 320.1L492.7 327.8ZM429.8 327L427.7 319.3C428.367 319.1 429.033 318.933 429.7 318.8L431.7 326.5C431.1 326.633 430.467 326.8 429.8 327ZM485.2 325.8C484.6 325.667 483.967 325.533 483.3 325.4L485 317.6C485.667 317.733 486.333 317.867 487 318L485.2 325.8ZM437.4 325.2L435.7 317.4C436.433 317.267 437.133 317.133 437.8 317L439.3 324.8C438.633 324.933 438 325.067 437.4 325.2ZM477.7 324.4C477.033 324.267 476.4 324.167 475.8 324.1L476.9 316.1C477.567 316.233 478.233 316.367 478.9 316.5L477.7 324.4ZM445 323.9L444 316C444.667 315.867 445.333 315.767 446 315.7L447 323.7C446.333 323.767 445.667 323.833 445 323.9ZM470.1 323.4C469.433 323.333 468.767 323.267 468.1 323.2L468.7 315.3C469.433 315.3 470.133 315.333 470.8 315.4L470.1 323.4ZM452.8 323.2L452.2 315.2C452.933 315.133 453.633 315.1 454.3 315.1L454.7 323.1C454.033 323.1 453.4 323.133 452.8 323.2ZM462.4 323C461.733 323 461.1 323 460.5 323V315C461.167 315 461.867 315 462.6 315L462.4 323Z" fill="white"/>
<path d="M302.7 499.4C301.633 496.734 300.633 494.067 299.7 491.4L294.5 493.5C291.8 494.6 290.6 497.6 291.6 500.2L294.2 506.5C295.2 509.1 298.2 510.4 300.9 509.4L306.1 507.2C304.966 504.667 303.833 502.067 302.7 499.4Z" fill="#4C7370"/>
<path d="M411.2 357.6L411.8 357.3C412.067 357.167 412.133 357 412 356.8L408.5 347.9L410.3 347.2L416.9 351.6C417.5 352 418.4 352.7 418.4 352.7C418.4 352.7 417.9 351.9 417.7 351.2L415.7 346.2C415.4 345.5 415.5 345.1 416.3 344.8L418.3 344L418.9 345.7L418.3 345.9C418.1 346.033 418.033 346.2 418.1 346.4L421.7 355.3L419.9 356L413.3 351.7C412.6 351.2 411.7 350.5 411.7 350.5C411.7 350.5 412.2 351.4 412.4 352L414.5 357C414.8 357.7 414.6 358.2 413.8 358.5L411.9 359.3L411.2 357.6Z" fill="#5131A5"/>
<path d="M428.5 342.2C428.3 342 428.1 342 427.8 342.1L427.5 342.2L426.8 340.5L428.2 340C428.9 339.7 429.4 339.7 429.9 340.3L434 346.2C434.4 346.8 434.6 347.3 434.6 347.3H434.7C434.7 347.3 434.5 346.7 434.4 346L433.4 337.9L435.2 337.2L440 343.8C440.4 344.3 440.7 344.9 440.7 344.9V344.8C440.7 344.8 440.5 344.3 440.4 343.6L439.3 336.5C439.2 335.7 439.5 335.4 440.3 335.1L441.6 334.5L442.3 336.2L442 336.3C441.7 336.5 441.6 336.6 441.7 336.9L443 346.7L440.6 347.6L436.5 342.1C436 341.5 435.7 340.9 435.7 340.9H435.6C435.6 340.9 435.8 341.6 435.9 342.4L436.6 349.2L434.3 350.2L428.5 342.2Z" fill="#5131A5"/>
<path d="M503.3 509.4C503.3 509.4 501.6 508.5 500.1 509.2C499.3 509.5 498.7 510.2 499.1 511.1C499.8 512.9 504.9 510.7 506.3 514.1C507 515.9 506 517.8 503.9 518.7C502.6 519.2 500.4 519.4 499.7 517.8L499.3 516.8L501.1 516.1L501.3 516.6C501.5 517.1 502.4 517.1 503.1 516.8C504.1 516.5 504.5 515.7 504.3 515C503.5 513.1 498.5 515.6 497.1 512C496.4 510.3 497.1 508.2 499.4 507.3C501.8 506.3 503.8 507.5 503.8 507.5L503.3 509.4Z" fill="#5131A5"/>
<path d="M489.3 522.301L490.3 521.901L491 523.601L484.4 526.301C483.7 526.601 483.2 526.401 482.9 525.701L482.2 524.001L484.1 523.301L484.3 524.001C484.433 524.201 484.6 524.267 484.8 524.201L487.3 523.201L486.1 520.301L482.6 521.701L481.9 520.001L485.4 518.601L484.4 516.001C484.266 515.801 484.1 515.734 483.9 515.801L481.4 516.801C481.2 516.867 481.133 517.034 481.2 517.301L481.5 517.901L479.6 518.701L478.9 517.001C478.7 516.301 478.9 515.801 479.6 515.501L484.5 513.501C485.3 513.201 485.7 513.401 486 514.201L489.3 522.301Z" fill="#5131A5"/>
<path d="M382.4 479.3C382.4 479.3 383.2 477.7 382.6 476.2C382.3 475.3 381.6 474.8 380.7 475.1C378.8 475.9 381.1 481 377.7 482.3C375.9 483.1 374 482 373.1 479.9C372.6 478.7 372.4 476.4 374 475.8L375 475.4L375.7 477.2L375.2 477.4C374.7 477.6 374.7 478.5 375 479.2C375.3 480.1 376.1 480.6 376.8 480.3C378.6 479.6 376.2 474.6 379.8 473.1C381.5 472.4 383.5 473.2 384.5 475.5C385.4 477.9 384.3 479.9 384.3 479.9L382.4 479.3Z" fill="#5131A5"/>
<path d="M370.1 466.1C369.9 466.3 369.9 466.5 370 466.7L370.1 467L368.4 467.7L367.9 466.4C367.6 465.6 367.6 465.1 368.2 464.7L374.1 460.6C374.7 460.2 375.2 459.9 375.2 459.9C375.2 459.9 374.6 460 373.9 460.1L365.8 461.1L365.1 459.4L371.7 454.5C372.2 454.1 372.7 453.9 372.7 453.9V453.8C372.7 453.8 372.2 454 371.5 454.1L364.4 455.2C363.6 455.4 363.3 455 363 454.3L362.4 452.9L364.1 452.2L364.2 452.5C364.4 452.8 364.5 452.9 364.8 452.9L374.6 451.6L375.5 453.9L370 458.1C369.4 458.5 368.8 458.9 368.8 458.9C368.8 458.9 369.5 458.7 370.3 458.7L377.1 457.9L378.1 460.2L370.1 466.1Z" fill="#5131A5"/>
<path d="M539.8 386.1L540.1 386.8C540.233 387 540.4 387.067 540.6 387L549.5 383.4L550.2 385.2L545.8 391.8C545.4 392.5 544.7 393.3 544.7 393.3C544.7 393.3 545.5 392.9 546.2 392.6L551.2 390.6C551.9 390.3 552.3 390.5 552.6 391.2L553.4 393.2L551.7 393.9L551.5 393.2C551.366 393 551.2 392.934 551 393L542.1 396.6L541.4 394.8L545.7 388.2C546.2 387.5 546.9 386.7 546.9 386.7C546.9 386.7 546 387.1 545.4 387.4L540.4 389.4C539.7 389.7 539.2 389.5 538.9 388.8L538.1 386.8L539.8 386.1Z" fill="#5131A5"/>
<path d="M555.9 404.1L555.4 403.1L557.2 402.4L559.8 409C560.1 409.7 559.9 410.2 559.2 410.5L557.5 411.2L556.8 409.3L557.5 409.1C557.7 408.967 557.767 408.8 557.7 408.6L556.7 406.1L553.8 407.3L555.2 410.8L553.5 411.5L552.1 408L549.5 409C549.3 409.134 549.233 409.3 549.3 409.5L550.3 412C550.433 412.2 550.6 412.267 550.8 412.2L551.4 411.9L552.2 413.8L550.5 414.5C549.8 414.7 549.3 414.6 549.1 413.8L547.1 408.9C546.8 408.1 546.9 407.7 547.7 407.4L555.9 404.1Z" fill="#5131A5"/>
<path fill-rule="evenodd" clip-rule="evenodd" d="M460.6 581C403.1 581 348.5 546.6 325.7 490.1C295.6 415.8 331.7 330.9 406 300.9C442 286.3 481.5 286.6 517.2 301.8C553 317 580.7 345.1 595.2 381.1C625.3 455.5 589.3 540.4 515 570.4C497.2 577.6 478.8 581 460.6 581ZM460.5 291.2C442.2 291.2 423.8 294.7 406.4 301.8C332.6 331.6 296.8 415.9 326.6 489.7C356.5 563.5 440.8 599.3 514.6 569.5C588.4 539.6 624.2 455.3 594.3 381.5C579.9 345.8 552.4 317.8 516.9 302.7C498.7 295 479.6 291.2 460.5 291.2Z" fill="white"/>
<path fill-rule="evenodd" clip-rule="evenodd" d="M460.5 511.7C450.4 511.7 440.3 509.7 430.8 505.7C412.1 497.7 397.6 483 389.9 464.1C382.3 445.3 382.5 424.6 390.4 405.9C398.4 387.2 413.1 372.7 432 365.1C450.8 357.5 471.5 357.7 490.2 365.6C508.9 373.5 523.4 388.3 531 407.1C538.6 426 538.4 446.6 530.5 465.3C522.6 484 507.8 498.5 489 506.2C479.8 509.9 470.1 511.7 460.5 511.7ZM460.5 361.5C451.1 361.5 441.7 363.3 432.7 367C394.8 382.3 376.5 425.5 391.8 463.4C399.2 481.7 413.3 496.1 431.5 503.8C449.8 511.5 469.9 511.7 488.2 504.3C526.1 489 544.4 445.7 529.1 407.9C521.7 389.5 507.6 375.2 489.4 367.4C480.1 363.5 470.3 361.5 460.5 361.5Z" fill="#0265DC"/>
<path d="M419.8 238.6C419 238.6 418.2 238.3 417.6 237.7C416.5 236.6 416.5 234.7 417.6 233.5C418.933 232.167 420.333 230.767 421.8 229.3C422.9 228.1 424.8 228 426 229.2C427.2 230.3 427.3 232.2 426.1 233.4C424.633 235 423.233 236.467 421.9 237.8C421.3 238.3 420.5 238.6 419.8 238.6ZM433.2 223.9C432.6 223.9 431.9 223.6 431.3 223.2C430.1 222.1 429.9 220.2 430.9 219C432.166 217.467 433.4 215.9 434.6 214.3C435.6 213 437.5 212.8 438.8 213.8C440.1 214.8 440.4 216.7 439.4 218C438.133 219.6 436.866 221.2 435.6 222.8C435 223.5 434.1 223.9 433.2 223.9ZM445 207.7C444.4 207.7 443.866 207.534 443.4 207.2C442 206.3 441.5 204.5 442.4 203.1C443.466 201.367 444.466 199.667 445.4 198C446.2 196.6 448.1 196.1 449.5 196.9C451 197.7 451.5 199.5 450.6 201C449.666 202.734 448.633 204.5 447.5 206.3C446.9 207.2 446 207.7 445 207.7ZM454.2 189.9C453.8 189.9 453.433 189.834 453.1 189.7C451.5 189.1 450.8 187.3 451.4 185.8C452.2 184 452.9 182.2 453.5 180.4C454 178.8 455.7 178 457.3 178.5C458.9 179 459.7 180.7 459.2 182.3C458.533 184.234 457.8 186.167 457 188.1C456.5 189.2 455.4 189.9 454.2 189.9ZM459.8 170.8C459.6 170.8 459.433 170.767 459.3 170.7C457.7 170.5 456.6 168.9 456.8 167.3C457.133 165.367 457.366 163.467 457.5 161.6C457.7 159.9 459.1 158.7 460.8 158.8C462.4 159 463.6 160.4 463.5 162.1C463.366 164.1 463.1 166.167 462.7 168.3C462.5 169.7 461.2 170.8 459.8 170.8ZM460.2 150.9C458.7 150.9 457.4 149.8 457.2 148.3C457 146.367 456.666 144.467 456.2 142.6C455.9 141 456.9 139.4 458.5 139C460.1 138.7 461.7 139.7 462.1 141.3C462.566 143.367 462.933 145.434 463.2 147.5C463.4 149.1 462.2 150.6 460.6 150.8C460.466 150.867 460.333 150.9 460.2 150.9ZM454.9 131.6C453.8 131.6 452.6 130.9 452.2 129.8C451.466 128 450.666 126.234 449.8 124.5C449.1 123 449.7 121.2 451.2 120.5C452.7 119.7 454.5 120.4 455.2 121.9C456.133 123.767 456.966 125.634 457.7 127.5C458.3 129.1 457.6 130.8 456.1 131.4C455.7 131.534 455.3 131.6 454.9 131.6ZM445.7 114C444.7 114 443.8 113.5 443.2 112.6C442.133 110.934 441.033 109.3 439.9 107.7C439 106.3 439.3 104.4 440.7 103.5C442 102.6 443.9 102.9 444.9 104.2C446.033 105.934 447.133 107.634 448.2 109.3C449.1 110.7 448.7 112.6 447.3 113.5C446.8 113.8 446.3 114 445.7 114ZM434 97.8002C433.1 97.8002 432.2 97.4002 431.7 96.6002C430.433 95.0669 429.166 93.5335 427.9 92.0002C426.9 90.7002 427 88.8002 428.3 87.8002C429.6 86.7002 431.5 86.9002 432.5 88.2002C433.833 89.7335 435.133 91.3002 436.4 92.9002C437.4 94.2002 437.2 96.1002 435.9 97.1002C435.3 97.5002 434.7 97.8002 434 97.8002ZM421.3 82.3002C420.4 82.3002 419.5 82.0002 419 81.3002C417.666 79.7669 416.366 78.2002 415.1 76.6002C414 75.4002 414.2 73.5002 415.5 72.4002C416.8 71.4002 418.7 71.5002 419.7 72.8002C420.966 74.3335 422.233 75.8669 423.5 77.4002C424.6 78.7002 424.4 80.6002 423.2 81.6002C422.6 82.1002 421.9 82.3002 421.3 82.3002ZM408.7 66.8002C407.8 66.8002 406.9 66.3002 406.3 65.6002C405.1 63.9335 403.9 62.2669 402.7 60.6002C401.8 59.3002 402.1 57.4002 403.5 56.4002C404.8 55.5002 406.7 55.8002 407.6 57.2002C408.733 58.8002 409.9 60.4002 411.1 62.0002C412.1 63.3002 411.8 65.2002 410.5 66.2002C410 66.6002 409.3 66.8002 408.7 66.8002ZM397.7 50.1002C396.7 50.1002 395.6 49.5002 395.1 48.5002C394.1 46.7002 393.166 44.9002 392.3 43.1002C391.5 41.6002 392.2 39.8002 393.7 39.1002C395.1 38.3002 396.9 39.0002 397.7 40.5002C398.5 42.1669 399.366 43.8669 400.3 45.6002C401.2 47.1002 400.6 48.9002 399.2 49.7002C398.733 49.9669 398.233 50.1002 397.7 50.1002ZM389.8 31.8002C388.5 31.8002 387.4 30.9002 387 29.7002C386.333 27.7002 385.8 25.7002 385.4 23.7002C385 22.0002 386 20.4002 387.6 20.1002C389.2 19.7002 390.8 20.7002 391.2 22.3002C391.6 24.1669 392.1 26.0335 392.7 27.9002C393.2 29.5002 392.3 31.2002 390.7 31.6002C390.433 31.7335 390.133 31.8002 389.8 31.8002ZM386.3 12.2002C384.7 12.2002 383.4 11.0002 383.3 9.4002C383.166 7.46686 383.1 5.53353 383.1 3.6002V3.2002C383.1 1.5002 384.5 0.200195 386.1 0.200195C387.8 0.200195 389.1 1.5002 389.1 3.2002V3.6002C389.1 5.4002 389.166 7.2002 389.3 9.0002C389.4 10.6002 388.1 12.1002 386.5 12.2002C386.433 12.2002 386.366 12.2002 386.3 12.2002Z" fill="white"/>
<path d="M331.5 273.9C329.366 273.834 327.3 273.7 325.3 273.5C323.7 273.4 322.4 271.9 322.6 270.3C322.7 268.6 324.1 267.4 325.8 267.5C327.666 267.7 329.6 267.834 331.6 267.9C333.3 267.9 334.6 269.3 334.5 270.9C334.5 272.6 333.2 273.9 331.5 273.9ZM345.5 273.5C344 273.5 342.7 272.3 342.5 270.7C342.4 269.1 343.7 267.6 345.3 267.5C347.366 267.367 349.333 267.167 351.2 266.9C352.8 266.8 354.3 267.9 354.5 269.6C354.7 271.2 353.5 272.7 351.9 272.9C349.966 273.1 347.933 273.3 345.8 273.5C345.733 273.5 345.633 273.5 345.5 273.5ZM311.7 271.4C311.5 271.4 311.266 271.367 311 271.3C308.933 270.834 306.933 270.3 305 269.7C303.4 269.2 302.6 267.5 303.1 265.9C303.6 264.3 305.3 263.5 306.9 264C308.633 264.534 310.466 265.034 312.4 265.5C314 265.9 315 267.5 314.6 269.1C314.3 270.5 313.1 271.4 311.7 271.4ZM293.2 264.2C292.666 264.2 292.133 264.034 291.6 263.7C289.8 262.634 288.066 261.467 286.4 260.2C285.1 259.2 284.8 257.3 285.8 256C286.8 254.7 288.7 254.4 290 255.4C291.533 256.534 293.1 257.6 294.7 258.6C296.1 259.4 296.6 261.3 295.8 262.7C295.2 263.6 294.2 264.2 293.2 264.2ZM278.5 250.8C277.6 250.8 276.7 250.4 276.1 249.5C274.833 247.834 273.7 246.067 272.7 244.2C271.9 242.7 272.4 240.9 273.9 240.1C275.3 239.3 277.2 239.8 278 241.3C278.866 242.967 279.866 244.534 281 246C281.9 247.4 281.6 249.3 280.3 250.2C279.7 250.6 279.1 250.8 278.5 250.8ZM270.3 232.7C268.9 232.7 267.7 231.8 267.4 230.5L267.3 230.1C266.833 228.434 266.266 226.834 265.6 225.3C264.9 223.8 265.6 222 267.1 221.4C268.6 220.7 270.4 221.4 271.1 222.9C271.9 224.7 272.566 226.6 273.1 228.6L273.2 229C273.6 230.6 272.6 232.2 271 232.6C270.733 232.667 270.5 232.7 270.3 232.7ZM260 216.2C259.4 216.2 258.7 215.9 258.1 215.4C256.766 214.267 255.267 213.2 253.6 212.2C252.2 211.3 251.8 209.5 252.7 208.1C253.5 206.7 255.4 206.2 256.8 207.1C258.666 208.3 260.4 209.567 262 210.9C263.2 211.9 263.4 213.8 262.3 215.1C261.7 215.8 260.9 216.2 260 216.2ZM242.5 206.8C242.233 206.867 241.933 206.834 241.6 206.7C239.8 206.1 237.933 205.534 236 205C234.4 204.6 233.5 202.9 233.9 201.3C234.3 199.7 236 198.8 237.6 199.2C239.667 199.8 241.633 200.4 243.5 201C245.1 201.5 245.9 203.2 245.4 204.8C245 206.1 243.8 206.8 242.5 206.8ZM223.1 202.2C222.9 202.2 222.733 202.167 222.6 202.1C220.667 201.767 218.7 201.467 216.7 201.2C215.1 201 214 199.5 214.2 197.8C214.4 196.2 215.9 195 217.6 195.3C219.6 195.567 221.6 195.867 223.6 196.2C225.2 196.5 226.3 198 226.1 199.7C225.8 201.1 224.5 202.2 223.1 202.2ZM203.2 199.5C203.133 199.5 203.033 199.5 202.9 199.5C200.966 199.3 199 199.1 197 198.9C195.3 198.7 194.1 197.3 194.3 195.6C194.4 194 195.9 192.8 197.6 192.9C199.6 193.1 201.6 193.3 203.6 193.5C205.2 193.7 206.4 195.2 206.2 196.8C206.1 198.4 204.8 199.5 203.2 199.5ZM183.3 197.6C183.233 197.6 183.133 197.6 183 197.6L177 197.1C175.4 196.9 174.2 195.4 174.3 193.8C174.5 192.1 175.9 190.9 177.6 191.1L183.6 191.6C185.2 191.8 186.4 193.2 186.3 194.9C186.1 196.5 184.8 197.6 183.3 197.6ZM163.4 195.7C163.266 195.7 163.133 195.667 163 195.6C161 195.4 159 195.167 157 194.9C155.4 194.7 154.2 193.3 154.4 191.6C154.6 190 156.1 188.8 157.7 189C159.7 189.267 161.7 189.5 163.7 189.7C165.3 189.9 166.5 191.3 166.3 193C166.2 194.5 164.9 195.7 163.4 195.7ZM143.5 193C143.366 193 143.2 193 143 193C141 192.667 139 192.334 137 192C135.4 191.7 134.3 190.1 134.6 188.5C134.9 186.8 136.5 185.8 138.1 186.1C140.033 186.434 142 186.767 144 187.1C145.6 187.3 146.7 188.9 146.5 190.5C146.2 192 144.9 193 143.5 193ZM123.9 189C123.633 189 123.367 189 123.1 189C121.167 188.467 119.233 187.934 117.3 187.4C115.7 186.9 114.7 185.2 115.2 183.6C115.7 182 117.3 181.1 118.9 181.6C120.766 182.134 122.667 182.634 124.6 183.1C126.2 183.5 127.2 185.2 126.8 186.8C126.4 188.1 125.2 189 123.9 189ZM104.9 182.9C104.5 182.9 104.1 182.834 103.7 182.7C101.766 181.9 99.8998 181.067 98.0998 180.2C96.5998 179.5 95.9998 177.7 96.6998 176.2C97.3998 174.7 99.1998 174.1 100.7 174.8C102.366 175.6 104.133 176.367 106 177.1C107.5 177.8 108.3 179.5 107.6 181C107.2 182.2 106 182.9 104.9 182.9ZM87.1998 173.6C86.5998 173.6 86.0998 173.5 85.4998 173.1C83.7665 171.967 82.0998 170.767 80.4998 169.5C79.1998 168.4 78.9998 166.5 79.9998 165.2C81.0998 163.9 82.9998 163.7 84.2998 164.8C85.7665 165.934 87.2998 167.034 88.8998 168.1C90.2998 169.1 90.5998 170.9 89.6998 172.3C89.0998 173.2 88.1998 173.6 87.1998 173.6ZM72.2998 160.5C71.4998 160.5 70.6998 160.1 70.0998 159.4C68.6998 157.867 67.3998 156.234 66.1998 154.5C65.2998 153.2 65.5998 151.3 66.8998 150.3C68.2998 149.4 70.0998 149.7 71.0998 151C72.2332 152.534 73.3998 154.034 74.5998 155.5C75.6998 156.8 75.5998 158.7 74.2998 159.8C73.6998 160.2 72.9998 160.5 72.2998 160.5ZM61.6998 143.7C60.5998 143.7 59.4998 143.1 58.9998 142C58.7332 141.4 58.4665 140.834 58.1998 140.3C57.6665 139.034 57.1332 137.734 56.5998 136.4C55.8998 134.9 56.5998 133.2 58.0998 132.5C59.5998 131.8 61.3998 132.5 61.9998 134C62.5998 135.334 63.1665 136.634 63.6998 137.9C63.9665 138.434 64.1998 138.967 64.3998 139.5C65.0998 141 64.4998 142.8 62.8998 143.5C62.4998 143.634 62.0998 143.7 61.6998 143.7ZM53.3998 125.5C52.2998 125.5 51.2998 124.9 50.6998 123.8C49.8332 122 48.9665 120.234 48.0998 118.5C47.2998 117 47.8998 115.2 49.3998 114.5C50.8998 113.7 52.6998 114.3 53.4998 115.8C54.3665 117.534 55.2332 119.334 56.0998 121.2C56.8998 122.7 56.1998 124.5 54.6998 125.2C54.2998 125.4 53.8665 125.5 53.3998 125.5ZM44.1998 107.8C43.0998 107.8 42.0998 107.3 41.5998 106.3C40.5998 104.5 39.5998 102.767 38.5998 101.1C37.7998 99.7003 38.1998 97.9003 39.6998 97.0003C41.0998 96.2003 42.8998 96.7003 43.7998 98.1003C44.7998 99.767 45.7998 101.5 46.7998 103.3C47.5998 104.8 47.0998 106.6 45.6998 107.4C45.1665 107.667 44.6665 107.8 44.1998 107.8ZM33.6998 90.8003C32.7998 90.8003 31.7998 90.3003 31.1998 89.4003C30.0665 87.7337 28.9665 86.1337 27.8998 84.6003C26.8998 83.2003 27.1998 81.4003 28.5998 80.4003C29.8998 79.4003 31.7998 79.8003 32.7998 81.1003C33.9332 82.7003 35.0665 84.367 36.1998 86.1003C37.1998 87.5003 36.7998 89.3003 35.3998 90.3003C34.8998 90.6003 34.2998 90.8003 33.6998 90.8003ZM21.7998 74.8003C20.8998 74.8003 20.0998 74.4003 19.4998 73.7003C18.1665 72.1003 16.8665 70.6337 15.5998 69.3003C14.4998 68.0003 14.5998 66.1003 15.7998 65.0003C17.0998 63.9003 18.9998 64.0003 20.0998 65.2003C21.3665 66.667 22.6998 68.2003 24.0998 69.8003C25.0998 71.1003 24.9998 73.0003 23.6998 74.1003C23.0998 74.5003 22.4998 74.8003 21.7998 74.8003ZM7.89983 60.4003C7.19983 60.4003 6.49983 60.2003 5.89983 59.7003C4.3665 58.367 2.8665 57.167 1.39983 56.1003C0.0998302 55.1003 -0.200169 53.2003 0.799831 51.9003C1.79983 50.6003 3.69983 50.3003 4.99983 51.3003C6.59983 52.5003 8.19983 53.8003 9.79983 55.2003C11.0998 56.3003 11.1998 58.1003 10.0998 59.4003C9.49983 60.1003 8.69983 60.4003 7.89983 60.4003Z" fill="white"/>
<path d="M452.6 323.8L454.6 428.3L469.6 426.9L452.6 323.8Z" fill="#5131A5"/>
<path d="M473.3 545.4L456.7 442.3L471.7 440.9L473.3 545.4Z" fill="#5131A5"/>
<path d="M474.2 434.4C473.5 426.9 466.8 421.3 459.2 421.9C451.7 422.6 446.1 429.3 446.8 436.9C447.5 444.4 454.1 450 461.7 449.3C469.2 448.6 474.8 442 474.2 434.4Z" fill="white"/>
<path d="M470.3 547.6L453.7 444.5L468.7 443.1L470.3 547.6Z" fill="white"/>
<path d="M450.1 324.8L452 429.2L467 427.9L450.1 324.8Z" fill="white"/>
<path d="M464.8 433.9C463.9 431.5 461.1 430.3 458.7 431.3C456.3 432.2 455.1 435 456.1 437.4C457.1 439.8 459.8 441 462.2 440C464.6 439 465.8 436.3 464.8 433.9Z" fill="#969696"/>
<path d="M407.5 261.6C407.367 260.133 407 258.667 406.4 257.2C402.9 248.6 393.2 244.4 384.6 247.9C376 251.4 371.9 261.1 375.3 269.7C375.9 271.167 376.667 272.5 377.6 273.7L407.5 261.6Z" fill="#4C7370"/>
</svg>
